<mxfile host="app.diagrams.net" modified="2021-12-29T08:14:08.288Z" agent="5.0 (Windows NT 6.1; WOW64) AppleWebKit/537.36 (KHTML, like Gecko) Chrome/96.0.4664.110 Safari/537.36" etag="6cBP1oP7YQ7TsprQVWTV" version="15.3.3" type="github">
  <diagram id="xZSvA7O0f5KL_OnYw_Wv" name="第 1 页">
    <mxGraphModel dx="1422" dy="762" grid="1" gridSize="10" guides="1" tooltips="1" connect="1" arrows="1" fold="1" page="1" pageScale="1" pageWidth="827" pageHeight="1169" math="0" shadow="0">
      <root>
        <mxCell id="0" />
        <mxCell id="1" parent="0" />
        <mxCell id="VRYQq9xkDI9uQO10zIct-4" style="edgeStyle=none;curved=1;rounded=0;orthogonalLoop=1;jettySize=auto;html=1;entryX=0.25;entryY=0;entryDx=0;entryDy=0;endArrow=open;startSize=14;endSize=14;sourcePerimeterSpacing=8;targetPerimeterSpacing=8;exitX=0.25;exitY=1;exitDx=0;exitDy=0;" edge="1" parent="1" source="VRYQq9xkDI9uQO10zIct-1" target="VRYQq9xkDI9uQO10zIct-2">
          <mxGeometry relative="1" as="geometry" />
        </mxCell>
        <mxCell id="VRYQq9xkDI9uQO10zIct-1" value="Jmeter" style="rounded=0;whiteSpace=wrap;html=1;hachureGap=4;pointerEvents=0;" vertex="1" parent="1">
          <mxGeometry x="150" y="240" width="120" height="60" as="geometry" />
        </mxCell>
        <mxCell id="VRYQq9xkDI9uQO10zIct-5" style="edgeStyle=none;curved=1;rounded=0;orthogonalLoop=1;jettySize=auto;html=1;exitX=0.25;exitY=1;exitDx=0;exitDy=0;endArrow=open;startSize=14;endSize=14;sourcePerimeterSpacing=8;targetPerimeterSpacing=8;entryX=0.25;entryY=0;entryDx=0;entryDy=0;" edge="1" parent="1" source="VRYQq9xkDI9uQO10zIct-2" target="VRYQq9xkDI9uQO10zIct-3">
          <mxGeometry relative="1" as="geometry" />
        </mxCell>
        <mxCell id="VRYQq9xkDI9uQO10zIct-9" style="edgeStyle=none;curved=1;rounded=0;orthogonalLoop=1;jettySize=auto;html=1;exitX=0.75;exitY=0;exitDx=0;exitDy=0;entryX=0.75;entryY=1;entryDx=0;entryDy=0;endArrow=open;startSize=14;endSize=14;sourcePerimeterSpacing=8;targetPerimeterSpacing=8;" edge="1" parent="1" source="VRYQq9xkDI9uQO10zIct-2" target="VRYQq9xkDI9uQO10zIct-1">
          <mxGeometry relative="1" as="geometry" />
        </mxCell>
        <mxCell id="VRYQq9xkDI9uQO10zIct-2" value="Consumer" style="rounded=0;whiteSpace=wrap;html=1;hachureGap=4;pointerEvents=0;" vertex="1" parent="1">
          <mxGeometry x="150" y="350" width="120" height="60" as="geometry" />
        </mxCell>
        <mxCell id="VRYQq9xkDI9uQO10zIct-10" style="edgeStyle=none;curved=1;rounded=0;orthogonalLoop=1;jettySize=auto;html=1;exitX=0.75;exitY=0;exitDx=0;exitDy=0;entryX=0.75;entryY=1;entryDx=0;entryDy=0;endArrow=open;startSize=14;endSize=14;sourcePerimeterSpacing=8;targetPerimeterSpacing=8;" edge="1" parent="1" source="VRYQq9xkDI9uQO10zIct-3" target="VRYQq9xkDI9uQO10zIct-2">
          <mxGeometry relative="1" as="geometry" />
        </mxCell>
        <mxCell id="VRYQq9xkDI9uQO10zIct-3" value="Provider" style="rounded=0;whiteSpace=wrap;html=1;hachureGap=4;pointerEvents=0;" vertex="1" parent="1">
          <mxGeometry x="150" y="450" width="120" height="60" as="geometry" />
        </mxCell>
        <mxCell id="VRYQq9xkDI9uQO10zIct-14" style="edgeStyle=none;curved=1;rounded=0;orthogonalLoop=1;jettySize=auto;html=1;exitX=0.75;exitY=0;exitDx=0;exitDy=0;entryX=0.75;entryY=1;entryDx=0;entryDy=0;endArrow=open;startSize=14;endSize=14;sourcePerimeterSpacing=8;targetPerimeterSpacing=8;" edge="1" parent="1" source="VRYQq9xkDI9uQO10zIct-7" target="VRYQq9xkDI9uQO10zIct-11">
          <mxGeometry relative="1" as="geometry" />
        </mxCell>
        <mxCell id="VRYQq9xkDI9uQO10zIct-7" value="Provider" style="rounded=0;whiteSpace=wrap;html=1;hachureGap=4;pointerEvents=0;" vertex="1" parent="1">
          <mxGeometry x="560" y="450" width="120" height="60" as="geometry" />
        </mxCell>
        <mxCell id="VRYQq9xkDI9uQO10zIct-12" style="edgeStyle=none;curved=1;rounded=0;orthogonalLoop=1;jettySize=auto;html=1;exitX=0.25;exitY=1;exitDx=0;exitDy=0;entryX=0.25;entryY=0;entryDx=0;entryDy=0;endArrow=open;startSize=14;endSize=14;sourcePerimeterSpacing=8;targetPerimeterSpacing=8;" edge="1" parent="1" source="VRYQq9xkDI9uQO10zIct-11" target="VRYQq9xkDI9uQO10zIct-7">
          <mxGeometry relative="1" as="geometry" />
        </mxCell>
        <mxCell id="VRYQq9xkDI9uQO10zIct-11" value="Jmeter" style="rounded=0;whiteSpace=wrap;html=1;hachureGap=4;pointerEvents=0;" vertex="1" parent="1">
          <mxGeometry x="560" y="240" width="120" height="60" as="geometry" />
        </mxCell>
        <mxCell id="VRYQq9xkDI9uQO10zIct-13" value="dubbo://" style="text;html=1;align=center;verticalAlign=middle;resizable=0;points=[];autosize=1;strokeColor=none;fillColor=none;" vertex="1" parent="1">
          <mxGeometry x="514" y="360" width="70" height="20" as="geometry" />
        </mxCell>
        <mxCell id="VRYQq9xkDI9uQO10zIct-15" value="http://" style="text;html=1;align=center;verticalAlign=middle;resizable=0;points=[];autosize=1;strokeColor=none;fillColor=none;" vertex="1" parent="1">
          <mxGeometry x="135" y="310" width="50" height="20" as="geometry" />
        </mxCell>
        <mxCell id="VRYQq9xkDI9uQO10zIct-16" value="dubbo://" style="text;html=1;align=center;verticalAlign=middle;resizable=0;points=[];autosize=1;strokeColor=none;fillColor=none;" vertex="1" parent="1">
          <mxGeometry x="100" y="420" width="70" height="20" as="geometry" />
        </mxCell>
        <mxCell id="VRYQq9xkDI9uQO10zIct-17" value="思路一" style="text;html=1;strokeColor=none;fillColor=none;align=center;verticalAlign=middle;whiteSpace=wrap;rounded=0;hachureGap=4;pointerEvents=0;" vertex="1" parent="1">
          <mxGeometry x="177.5" y="180" width="65" height="20" as="geometry" />
        </mxCell>
        <mxCell id="VRYQq9xkDI9uQO10zIct-19" value="思路二" style="text;html=1;strokeColor=none;fillColor=none;align=center;verticalAlign=middle;whiteSpace=wrap;rounded=0;hachureGap=4;pointerEvents=0;" vertex="1" parent="1">
          <mxGeometry x="584" y="180" width="65" height="20" as="geometry" />
        </mxCell>
      </root>
    </mxGraphModel>
  </diagram>
</mxfile>
